<svg aria-hidden="true" style="width:0;height:0;position:absolute;overflow:hidden" xmlns="http://www.w3.org/2000/svg"><defs><symbol id="icon-Arrow" viewBox="0 0 82 32"><path d="M81.414 17.414a2 2 0 0 0 0-2.828L68.686 1.858a2 2 0 1 0-2.828 2.828L77.172 16 65.858 27.314a2 2 0 1 0 2.828 2.828l12.728-12.728zM0 18h80v-4H0v4z"/></symbol><symbol id="icon-arrowhero" viewBox="0 0 82 32"><path fill="#fcfcfc" style="fill:var(--color1,#fcfcfc)" d="M81.414 17.414c.362-.362.586-.862.586-1.414s-.224-1.052-.586-1.414L68.686 1.858a2 2 0 1 0-2.829 2.827l.001.001L77.172 16 65.858 27.314a2 2 0 0 0 2.829 2.827l-.001.001 12.728-12.728zM0 18h80v-4H0v4z"/></symbol><symbol id="icon-cafe" viewBox="0 0 22 32"><path fill="#131313" style="fill:var(--color2,#131313)" d="M2.606 18.286V6.472l1.931 1.835H.312V4.904h6.806v13.382H2.606zm13.343.306c-1.275 0-2.396-.242-3.365-.726a5.432 5.432 0 0 1-2.256-2.198c-.535-.981-.803-2.198-.803-3.651 0-1.568.312-2.9.937-3.995a6.33 6.33 0 0 1 2.6-2.543c1.122-.586 2.415-.879 3.881-.879.79 0 1.548.096 2.275.287.739.179 1.364.433 1.873.765l-1.625 3.154a3.292 3.292 0 0 0-1.204-.554 4.769 4.769 0 0 0-1.212-.153h-.012.001c-.905 0-1.631.274-2.179.822-.535.535-.803 1.319-.803 2.351V12.4l-1.032-.746c.255-.433.554-.797.899-1.09a3.39 3.39 0 0 1 1.223-.688c.472-.166 1.019-.249 1.644-.249.816 0 1.568.179 2.256.535a4.182 4.182 0 0 1 1.682 1.472c.433.637.65 1.396.65 2.275 0 .956-.242 1.784-.726 2.485s-1.141 1.243-1.969 1.625c-.816.382-1.727.573-2.734.573zm-.306-3.116c.268 0 .503-.051.707-.153.217-.115.382-.274.497-.478s.172-.446.172-.726c0-.421-.128-.752-.382-.994-.255-.255-.586-.382-.994-.382-.268 0-.503.057-.707.172s-.37.274-.497.478c-.115.204-.172.446-.172.726s.057.522.172.726c.128.204.293.363.497.478.204.102.44.153.707.153z"/><path fill="#fff" style="fill:var(--color3,#fff)" d="M8.472 30.782c-.303 0-.574-.066-.815-.198a1.507 1.507 0 0 1-.555-.546l-.004-.007a1.604 1.604 0 0 1-.204-.809c0-.306.068-.576.204-.809.135-.231.324-.416.551-.543l.007-.004c.241-.132.512-.198.815-.198.26 0 .495.05.704.151s.374.252.495.454l-.308.209a.985.985 0 0 0-.384-.341l-.006-.003a1.146 1.146 0 0 0-.495-.111h-.011.001c-.217 0-.413.05-.588.151-.175.097-.312.235-.413.413s-.151.388-.151.628.051.45.151.628a1.1 1.1 0 0 0 .413.419c.175.097.371.145.588.145.182 0 .351-.037.506-.111s.285-.186.39-.337l.308.209a1.193 1.193 0 0 1-.495.454 1.572 1.572 0 0 1-.68.151h-.025.001zm3.924-.029v-.675l-.017-.111v-1.129c0-.26-.074-.46-.221-.599-.143-.14-.359-.209-.646-.209-.198 0-.386.033-.564.099s-.33.153-.454.262l-.186-.308c.155-.132.341-.233.559-.303.202-.07.434-.111.676-.111h.011-.001c.396 0 .7.099.913.297.217.194.326.49.326.89v1.897h-.396zm-1.053.029c-.229 0-.428-.037-.599-.111a.915.915 0 0 1-.384-.314.82.82 0 0 1-.134-.452v-.014.001c0-.159.037-.303.111-.431a.796.796 0 0 1 .372-.314c.175-.081.407-.122.698-.122h1.053v.308h-1.041c-.295 0-.5.052-.617.157a.51.51 0 0 0-.169.38v.011-.001c0 .175.068.314.204.419s.326.157.57.157a1.1 1.1 0 0 0 .599-.157.928.928 0 0 0 .372-.465l.093.285a.967.967 0 0 1-.403.48l-.004.002c-.19.121-.431.18-.721.18zm2.641-.029v-3.439c0-.271.079-.49.239-.657s.388-.25.687-.25c.116 0 .229.015.337.047s.199.079.273.145l-.14.308a.558.558 0 0 0-.2-.11l-.004-.001a.734.734 0 0 0-.244-.041h-.006c-.175 0-.308.049-.401.145s-.14.241-.14.431v.465l.012.192v2.764h-.413zm-.547-2.711v-.343h1.891v.343h-1.891zm3.694 2.74c-.317 0-.597-.066-.837-.198a1.508 1.508 0 0 1-.561-.546l-.004-.007c-.136-.237-.204-.506-.204-.809s.064-.57.192-.803c.129-.229.31-.414.529-.543l.007-.004c.214-.128.473-.204.748-.204h.021-.001c.287 0 .541.066.762.198.225.128.401.31.529.547.128.233.192.502.192.809a.352.352 0 0 1-.006.066v-.002.064h-2.659v-.308h2.438l-.163.122c0-.221-.049-.417-.145-.588-.09-.17-.22-.309-.379-.405l-.005-.003a1.081 1.081 0 0 0-.564-.145c-.209 0-.398.049-.564.145s-.297.233-.39.407c-.093.175-.14.374-.14.599v.064c0 .233.05.438.151.617.105.175.248.312.431.413.186.097.397.145.634.145.186 0 .359-.033.518-.099a1.09 1.09 0 0 0 .418-.301l.001-.002.233.268a1.3 1.3 0 0 1-.512.372 1.671 1.671 0 0 1-.648.128h-.023.001zm3.035 0c-.252 0-.49-.035-.716-.105a1.583 1.583 0 0 1-.529-.273l.186-.326c.124.093.283.175.477.244.194.066.398.099.611.099.291 0 .5-.044.628-.134a.433.433 0 0 0 .192-.367.325.325 0 0 0-.111-.262.646.646 0 0 0-.275-.145l-.004-.001a2.858 2.858 0 0 0-.372-.085l-.018-.002a8.351 8.351 0 0 1-.431-.081 1.68 1.68 0 0 1-.394-.138l.01.004a.8.8 0 0 1-.285-.25.743.743 0 0 1-.105-.419c0-.167.047-.316.14-.448s.229-.235.407-.308c.182-.078.403-.116.663-.116.198 0 .396.027.593.081.198.05.361.118.489.204l-.18.332a1.344 1.344 0 0 0-.427-.196l-.009-.002c-.139-.04-.3-.064-.465-.064-.276 0-.479.049-.611.145a.427.427 0 0 0-.192.361c0 .116.035.208.105.273a.81.81 0 0 0 .285.157c.121.035.25.064.39.087.143.023.285.052.425.087.143.031.273.076.39.134a.664.664 0 0 1 .396.64c0 .179-.05.334-.151.465a.962.962 0 0 1-.431.303c-.186.07-.413.105-.681.105z"/></symbol><symbol id="icon-food" viewBox="0 0 33 32"><path fill="#131313" style="fill:var(--color2,#131313)" d="M9.228 18.286v-2.772l4.837-4.473c.306-.293.529-.548.669-.765.153-.217.255-.408.306-.573a1.76 1.76 0 0 0 .076-.496v-.001c0-.331-.108-.586-.325-.765-.217-.191-.541-.287-.975-.287-.395 0-.771.108-1.128.325-.357.204-.637.51-.841.918L8.444 7.696c.484-.918 1.211-1.663 2.179-2.237s2.173-.86 3.613-.86c1.058 0 1.995.172 2.81.516s1.453.828 1.912 1.453c.459.625.688 1.364.688 2.218-.001.463-.064.91-.18 1.335l.008-.036c-.102.433-.319.892-.65 1.376-.331.472-.822 1-1.472 1.587l-3.632 3.307-.707-1.568h6.939v3.498H9.227zm17.022.306c-.918 0-1.848-.102-2.791-.306s-1.772-.503-2.485-.898l1.529-3.326a7.19 7.19 0 0 0 1.745.734l.052.012a7.71 7.71 0 0 0 1.797.229c.51 0 .924-.083 1.243-.249.331-.179.497-.44.497-.784a.743.743 0 0 0-.363-.669c-.242-.166-.65-.249-1.223-.249h-1.778v-2.772l3.46-3.518.401 1.51h-6.672V4.903h9.979v2.772l-3.46 3.518-2.16-1.223h1.185c1.682 0 2.963.376 3.843 1.128s1.319 1.721 1.319 2.906c0 .765-.217 1.497-.65 2.198-.421.701-1.083 1.275-1.988 1.721-.892.446-2.052.669-3.479.669z"/><path fill="#fff" style="fill:var(--color3,#fff)" d="M.71 30.753v-3.439c0-.271.08-.49.239-.657s.388-.25.687-.25c.116 0 .229.015.337.047s.2.079.273.145l-.14.308a.558.558 0 0 0-.2-.11l-.004-.001a.734.734 0 0 0-.244-.041h-.006c-.175 0-.308.049-.401.145s-.14.241-.14.431v.465l.012.192v2.764H.71zm-.547-2.711v-.343h1.891v.343H.163zm3.642 2.74c-.295 0-.56-.066-.797-.198a1.52 1.52 0 0 1-.549-.546l-.004-.007a1.604 1.604 0 0 1-.204-.809c0-.306.068-.576.204-.809.134-.23.321-.415.546-.543l.007-.004a1.59 1.59 0 0 1 .797-.198c.303 0 .57.066.803.198.237.132.421.314.553.547.136.233.204.502.204.809 0 .303-.068.572-.204.809-.133.232-.32.42-.546.549l-.007.004a1.617 1.617 0 0 1-.803.198zm0-.366c.221 0 .417-.049.588-.145.171-.101.305-.241.401-.419.101-.182.151-.392.151-.628 0-.241-.05-.45-.151-.628a1.042 1.042 0 0 0-.396-.41l-.005-.003a1.111 1.111 0 0 0-.563-.151h-.02.001-.019c-.207 0-.402.056-.568.154l.005-.003c-.17.097-.306.235-.407.413s-.151.388-.151.628c0 .237.051.446.151.628.101.179.237.318.407.419.171.097.363.145.576.145zm3.649.366c-.295 0-.561-.066-.797-.198a1.52 1.52 0 0 1-.549-.546l-.004-.007a1.594 1.594 0 0 1-.204-.809c0-.306.068-.576.204-.809.134-.23.321-.415.545-.543l.007-.004a1.59 1.59 0 0 1 .797-.198c.303 0 .57.066.803.198.237.132.421.314.553.547.135.233.204.502.204.809 0 .303-.068.572-.204.809-.133.232-.32.42-.546.549l-.007.004a1.623 1.623 0 0 1-.803.198zm0-.366c.221 0 .417-.049.588-.145.17-.101.304-.241.401-.419.101-.182.151-.392.151-.628 0-.241-.051-.45-.151-.628a1.035 1.035 0 0 0-.396-.41l-.005-.003a1.111 1.111 0 0 0-.563-.151h-.02.001-.019c-.207 0-.402.056-.568.154l.005-.003c-.17.097-.307.235-.407.413s-.151.388-.151.628c0 .237.05.446.151.628.101.179.237.318.407.419.17.097.362.145.576.145zm3.618.366a1.56 1.56 0 0 1-.785-.198 1.442 1.442 0 0 1-.537-.54l-.004-.007a1.645 1.645 0 0 1-.198-.815c0-.31.066-.582.198-.815s.312-.413.541-.541c.233-.132.495-.198.785-.198.268 0 .506.06.716.18.213.121.382.297.506.529.128.229.192.51.192.844 0 .33-.062.611-.186.844s-.293.411-.506.535c-.209.121-.45.18-.721.18zm.029-.366c.217 0 .411-.049.582-.145.175-.101.31-.241.407-.419.101-.182.151-.392.151-.628 0-.241-.05-.45-.151-.628a1.018 1.018 0 0 0-.407-.413 1.111 1.111 0 0 0-.563-.151h-.02.001a1.11 1.11 0 0 0-.983.564 1.253 1.253 0 0 0-.151.628c0 .237.05.446.151.628.101.179.237.318.407.419.17.097.363.145.576.145zm1.152.337v-.919l.041-.617-.058-.617v-2.164h.413v4.317h-.396zm4.035.029c-.287 0-.508-.078-.663-.233s-.233-.374-.233-.657v-2.868h.413v2.845c0 .179.045.316.134.413.093.097.225.145.396.145a.663.663 0 0 0 .454-.157l.145.297a.778.778 0 0 1-.291.162l-.005.001a1.166 1.166 0 0 1-.349.052zm-1.443-2.74v-.343h1.891v.343h-1.891zm2.841 2.711v-3.055h.396v.832l-.041-.145a.988.988 0 0 1 .431-.529c.202-.124.452-.186.751-.186v.401h-.047a.173.173 0 0 0-.047-.006c-.322 0-.574.099-.756.297-.182.194-.273.471-.273.832v1.559h-.413zm3.597.029c-.26 0-.487-.049-.681-.145s-.349-.247-.451-.431l-.003-.005c-.105-.194-.157-.436-.157-.727v-1.775h.413v1.728c0 .326.079.572.239.739.163.163.39.244.681.244.213 0 .398-.043.553-.128a.873.873 0 0 0 .358-.379l.002-.005c.085-.167.128-.367.128-.599v-1.6h.413v3.055h-.396v-.838l.064.151a1.148 1.148 0 0 1-.449.527l-.005.003a1.328 1.328 0 0 1-.71.186zm3.915 0c-.303 0-.574-.066-.815-.198a1.514 1.514 0 0 1-.555-.546l-.004-.007a1.604 1.604 0 0 1-.204-.809c0-.306.068-.576.204-.809s.322-.415.559-.547c.241-.132.512-.198.815-.198.26 0 .495.05.704.151s.374.252.495.454l-.308.209a.985.985 0 0 0-.384-.341l-.006-.003a1.143 1.143 0 0 0-.495-.111h-.011.001c-.217 0-.413.05-.588.151-.175.097-.312.235-.413.413s-.151.388-.151.628.051.45.151.628a1.1 1.1 0 0 0 .413.419c.175.097.371.145.588.145.182 0 .351-.037.506-.111s.285-.186.39-.337l.308.209c-.12.198-.285.349-.495.454a1.572 1.572 0 0 1-.68.151h-.025.001zm2.291-.82.012-.529 1.903-1.734h.506l-1.344 1.286-.233.198-.844.78zm-.326.791v-4.317h.413v4.317h-.413zm2.368 0-1.274-1.588.268-.32 1.513 1.908h-.506zm1.855.029c-.252 0-.49-.035-.716-.105a1.583 1.583 0 0 1-.529-.273l.186-.326c.124.093.283.175.477.244.194.066.398.099.611.099.291 0 .5-.044.628-.134a.433.433 0 0 0 .192-.367.325.325 0 0 0-.111-.262.646.646 0 0 0-.275-.145l-.004-.001a2.858 2.858 0 0 0-.372-.085l-.018-.002a8.351 8.351 0 0 1-.431-.081 1.68 1.68 0 0 1-.394-.138l.01.004a.8.8 0 0 1-.285-.25.743.743 0 0 1-.105-.419c0-.167.047-.316.14-.448s.229-.235.407-.308c.182-.078.403-.116.663-.116.198 0 .396.027.593.081.198.05.361.118.489.204l-.18.332a1.344 1.344 0 0 0-.427-.196l-.009-.002c-.139-.04-.3-.064-.465-.064-.276 0-.479.049-.611.145a.427.427 0 0 0-.192.361c0 .116.035.208.105.273a.81.81 0 0 0 .285.157c.121.035.25.064.39.087.143.023.285.052.425.087.143.031.273.076.39.134a.664.664 0 0 1 .396.64c0 .179-.05.334-.151.465a.962.962 0 0 1-.431.303c-.186.07-.413.105-.681.105z"/></symbol><symbol id="facebook" viewBox="0 0 16 32"><path d="M14.143 15.971H10.11v14.865H3.998V15.971H1.092v-5.222h2.906V7.367c0-2.417 1.142-6.204 6.167-6.204l4.527.019v5.072h-3.284c-.538 0-1.297.272-1.297 1.425v3.073h4.567l-.534 5.219z"/></symbol><symbol id="telegram-i" viewBox="0 0 44 32"><path d="m17.342 21.048-.674 8.86c.966 0 1.384-.388 1.886-.852l4.526-4.04 9.38 6.414c1.72.894 2.934.422 3.398-1.478L42.016 3.02c.546-2.374-.92-3.302-2.594-2.72L3.226 13.234C.756 14.13.794 15.414 2.808 16l9.252 2.684L33.554 6.132c1.012-.626 1.932-.28 1.174.346l-17.386 14.57z"/></symbol><symbol id="git-hub" viewBox="0 0 32 32"><path d="M16 0C7.211 0 0 7.211 0 16c0 7.499 5.262 14.312 12.25 16v-5.293a3.921 3.921 0 0 1-2.062-.06l.028.007c-.946-.278-1.714-.909-2.285-1.869-.363-.613-1.008-1.28-1.68-1.23l-.165-1.867c1.454-.125 2.71.886 3.456 2.139.333.558.715.885 1.205 1.029.472.141.981.074 1.573-.136.149-1.186.693-1.629 1.104-2.256-4.168-.621-5.829-2.832-6.488-4.576-.874-2.318-.405-5.213 1.139-7.043.03-.035.085-.128.064-.192-.709-2.141.154-3.91.186-4.098.818.24.95-.243 3.552 1.336l.448.27c.189.112.128.048.317.032a13.246 13.246 0 0 1 3.349-.469h.01c1.136.014 2.272.176 3.403.483l.146.016c-.013-.003.04-.01.128-.062 3.248-1.968 3.131-1.325 4.003-1.608.032.189.882 1.987.182 4.099-.096.291 2.816 2.957 1.202 7.235-.659 1.744-2.32 3.957-6.486 4.578.534.816 1.176 1.248 1.173 2.928v6.606c6.986-1.688 12.25-8.501 12.25-16 0-8.789-7.211-16-16-16z"/></symbol><symbol id="vector-i" viewBox="0 0 22 32"><path fill="none" stroke="#fcfcfc" style="stroke:var(--color2,#000)" stroke-linejoin="round" stroke-linecap="round" stroke-width="6.4" d="m6.166 3.795 12.832 12.218L6.166 28.234"/></symbol><symbol id="vector-b" viewBox="0 0 22 32"><path fill="none" stroke="#fcfcfc" style="stroke:var(--color2,#fff)" stroke-linejoin="round" stroke-linecap="round" stroke-width="6.4" d="m6.166 3.795 12.832 12.218L6.166 28.234"/></symbol></defs></svg>