<svg aria-hidden="true" style="position: absolute; width: 0; height: 0; overflow: hidden;" version="1.1" xmlns="http://www.w3.org/2000/svg" xmlns:xlink="http://www.w3.org/1999/xlink">
<defs>
<symbol id="icon-Arrow" viewBox="0 0 82 32">
<path d="M81.414 17.414c0.781-0.781 0.781-2.047 0-2.828l-12.728-12.728c-0.781-0.781-2.047-0.781-2.828 0s-0.781 2.047 0 2.828l11.314 11.314-11.314 11.314c-0.781 0.781-0.781 2.047 0 2.828s2.047 0.781 2.828 0l12.728-12.728zM0 18h80v-4h-80v4z"></path>
</symbol>
<symbol id="icon-arrowhero" viewBox="0 0 82 32">
<path fill="#fcfcfc" style="fill: var(--color1, #fcfcfc)" d="M81.414 17.414c0.362-0.362 0.586-0.862 0.586-1.414s-0.224-1.052-0.586-1.414l-12.728-12.728c-0.364-0.377-0.874-0.611-1.439-0.611-1.105 0-2 0.895-2 2 0 0.565 0.234 1.074 0.61 1.438l0.001 0.001 11.314 11.314-11.314 11.314c-0.347 0.359-0.561 0.849-0.561 1.389 0 1.105 0.895 2 2 2 0.54 0 1.030-0.214 1.39-0.562l-0.001 0.001 12.728-12.728zM0 18h80v-4h-80v4z"></path>
</symbol>
<symbol id="icon-cafe" viewBox="0 0 22 32">
<path fill="#131313" style="fill: var(--color2, #131313)" d="M2.606 18.286v-11.814l1.931 1.835h-4.225v-3.403h6.806v13.382h-4.512zM15.949 18.592c-1.275 0-2.396-0.242-3.365-0.726-0.956-0.497-1.708-1.23-2.256-2.198-0.535-0.981-0.803-2.198-0.803-3.651 0-1.568 0.312-2.9 0.937-3.995 0.625-1.109 1.491-1.956 2.6-2.543 1.122-0.586 2.415-0.879 3.881-0.879 0.79 0 1.548 0.096 2.275 0.287 0.739 0.179 1.364 0.433 1.873 0.765l-1.625 3.154c-0.395-0.281-0.797-0.465-1.204-0.554-0.364-0.097-0.781-0.153-1.212-0.153-0.004 0-0.008 0-0.012 0h0.001c-0.905 0-1.631 0.274-2.179 0.822-0.535 0.535-0.803 1.319-0.803 2.351v1.128l-1.032-0.746c0.255-0.433 0.554-0.797 0.899-1.090 0.344-0.306 0.752-0.535 1.223-0.688 0.472-0.166 1.019-0.249 1.644-0.249 0.816 0 1.568 0.179 2.256 0.535 0.701 0.344 1.262 0.835 1.682 1.472 0.433 0.637 0.65 1.396 0.65 2.275 0 0.956-0.242 1.784-0.726 2.485s-1.141 1.243-1.969 1.625c-0.816 0.382-1.727 0.573-2.734 0.573zM15.643 15.476c0.268 0 0.503-0.051 0.707-0.153 0.217-0.115 0.382-0.274 0.497-0.478s0.172-0.446 0.172-0.726c0-0.421-0.128-0.752-0.382-0.994-0.255-0.255-0.586-0.382-0.994-0.382-0.268 0-0.503 0.057-0.707 0.172s-0.37 0.274-0.497 0.478c-0.115 0.204-0.172 0.446-0.172 0.726s0.057 0.522 0.172 0.726c0.128 0.204 0.293 0.363 0.497 0.478 0.204 0.102 0.44 0.153 0.707 0.153z"></path>
<path fill="#fff" style="fill: var(--color3, #fff)" d="M8.472 30.782c-0.303 0-0.574-0.066-0.815-0.198-0.234-0.134-0.423-0.321-0.555-0.546l-0.004-0.007c-0.135-0.237-0.204-0.506-0.204-0.809 0-0.306 0.068-0.576 0.204-0.809 0.135-0.231 0.324-0.416 0.551-0.543l0.007-0.004c0.241-0.132 0.512-0.198 0.815-0.198 0.26 0 0.495 0.050 0.704 0.151s0.374 0.252 0.495 0.454l-0.308 0.209c-0.097-0.147-0.229-0.264-0.384-0.341l-0.006-0.003c-0.145-0.070-0.316-0.111-0.495-0.111-0.004 0-0.008 0-0.011 0h0.001c-0.217 0-0.413 0.050-0.588 0.151-0.175 0.097-0.312 0.235-0.413 0.413s-0.151 0.388-0.151 0.628 0.051 0.45 0.151 0.628c0.101 0.179 0.239 0.318 0.413 0.419 0.175 0.097 0.371 0.145 0.588 0.145 0.182 0 0.351-0.037 0.506-0.111s0.285-0.186 0.39-0.337l0.308 0.209c-0.121 0.198-0.285 0.349-0.495 0.454-0.199 0.096-0.433 0.151-0.68 0.151-0.008 0-0.017-0-0.025-0l0.001 0zM12.396 30.753v-0.675l-0.017-0.111v-1.129c0-0.26-0.074-0.46-0.221-0.599-0.143-0.14-0.359-0.209-0.646-0.209-0.198 0-0.386 0.033-0.564 0.099s-0.33 0.153-0.454 0.262l-0.186-0.308c0.155-0.132 0.341-0.233 0.559-0.303 0.202-0.070 0.434-0.111 0.676-0.111 0.004 0 0.007 0 0.011 0h-0.001c0.396 0 0.7 0.099 0.913 0.297 0.217 0.194 0.326 0.49 0.326 0.89v1.897h-0.396zM11.343 30.782c-0.229 0-0.428-0.037-0.599-0.111-0.167-0.078-0.295-0.182-0.384-0.314-0.084-0.127-0.134-0.284-0.134-0.452 0-0.005 0-0.010 0-0.014v0.001c0-0.159 0.037-0.303 0.111-0.431 0.078-0.132 0.202-0.237 0.372-0.314 0.175-0.081 0.407-0.122 0.698-0.122h1.053v0.308h-1.041c-0.295 0-0.5 0.052-0.617 0.157-0.104 0.094-0.169 0.229-0.169 0.38 0 0.004 0 0.007 0 0.011v-0.001c0 0.175 0.068 0.314 0.204 0.419s0.326 0.157 0.57 0.157c0.233 0 0.432-0.052 0.599-0.157 0.17-0.108 0.295-0.264 0.372-0.465l0.093 0.285c-0.080 0.205-0.222 0.371-0.403 0.48l-0.004 0.002c-0.19 0.121-0.431 0.18-0.721 0.18zM13.984 30.753v-3.439c0-0.271 0.079-0.49 0.239-0.657s0.388-0.25 0.687-0.25c0.116 0 0.229 0.015 0.337 0.047s0.199 0.079 0.273 0.145l-0.14 0.308c-0.057-0.049-0.125-0.087-0.2-0.11l-0.004-0.001c-0.073-0.026-0.157-0.041-0.244-0.041-0.002 0-0.004 0-0.006 0h0c-0.175 0-0.308 0.049-0.401 0.145s-0.14 0.241-0.14 0.431v0.465l0.012 0.192v2.764h-0.413zM13.437 28.042v-0.343h1.891v0.343h-1.891zM17.131 30.782c-0.317 0-0.597-0.066-0.837-0.198-0.236-0.133-0.427-0.32-0.561-0.546l-0.004-0.007c-0.136-0.237-0.204-0.506-0.204-0.809s0.064-0.57 0.192-0.803c0.129-0.229 0.31-0.414 0.529-0.543l0.007-0.004c0.214-0.128 0.473-0.204 0.748-0.204 0.007 0 0.014 0 0.021 0h-0.001c0.287 0 0.541 0.066 0.762 0.198 0.225 0.128 0.401 0.31 0.529 0.547 0.128 0.233 0.192 0.502 0.192 0.809-0 0.023-0.002 0.045-0.006 0.066l0-0.002v0.064h-2.659v-0.308h2.438l-0.163 0.122c0-0.221-0.049-0.417-0.145-0.588-0.090-0.17-0.22-0.309-0.379-0.405l-0.005-0.003c-0.163-0.097-0.351-0.145-0.564-0.145-0.209 0-0.398 0.049-0.564 0.145s-0.297 0.233-0.39 0.407c-0.093 0.175-0.14 0.374-0.14 0.599v0.064c0 0.233 0.050 0.438 0.151 0.617 0.105 0.175 0.248 0.312 0.431 0.413 0.186 0.097 0.397 0.145 0.634 0.145 0.186 0 0.359-0.033 0.518-0.099 0.167-0.068 0.307-0.172 0.418-0.301l0.001-0.002 0.233 0.268c-0.136 0.163-0.306 0.287-0.512 0.372-0.191 0.081-0.414 0.128-0.648 0.128-0.008 0-0.015-0-0.023-0h0.001zM20.166 30.782c-0.252 0-0.49-0.035-0.716-0.105-0.225-0.074-0.401-0.165-0.529-0.273l0.186-0.326c0.124 0.093 0.283 0.175 0.477 0.244 0.194 0.066 0.398 0.099 0.611 0.099 0.291 0 0.5-0.044 0.628-0.134 0.128-0.093 0.192-0.215 0.192-0.367 0-0.112-0.037-0.199-0.111-0.262-0.077-0.069-0.171-0.119-0.275-0.145l-0.004-0.001c-0.106-0.033-0.238-0.063-0.372-0.085l-0.018-0.002c-0.143-0.023-0.287-0.050-0.431-0.081-0.145-0.032-0.274-0.078-0.394-0.138l0.010 0.004c-0.116-0.062-0.212-0.145-0.285-0.25-0.070-0.105-0.105-0.244-0.105-0.419 0-0.167 0.047-0.316 0.14-0.448s0.229-0.235 0.407-0.308c0.182-0.078 0.403-0.116 0.663-0.116 0.198 0 0.396 0.027 0.593 0.081 0.198 0.050 0.361 0.118 0.489 0.204l-0.18 0.332c-0.125-0.087-0.27-0.155-0.427-0.196l-0.009-0.002c-0.139-0.040-0.3-0.064-0.465-0.064h-0c-0.276 0-0.479 0.049-0.611 0.145-0.128 0.093-0.192 0.213-0.192 0.361 0 0.116 0.035 0.208 0.105 0.273 0.074 0.066 0.169 0.118 0.285 0.157 0.121 0.035 0.25 0.064 0.39 0.087 0.143 0.023 0.285 0.052 0.425 0.087 0.143 0.031 0.273 0.076 0.39 0.134 0.121 0.054 0.215 0.134 0.285 0.239 0.074 0.101 0.111 0.235 0.111 0.401 0 0.179-0.050 0.334-0.151 0.465-0.097 0.128-0.241 0.229-0.431 0.303-0.186 0.070-0.413 0.105-0.681 0.105z"></path>
</symbol>
<symbol id="icon-food" viewBox="0 0 33 32">
<path fill="#131313" style="fill: var(--color2, #131313)" d="M9.228 18.286v-2.772l4.837-4.473c0.306-0.293 0.529-0.548 0.669-0.765 0.153-0.217 0.255-0.408 0.306-0.573 0.046-0.148 0.074-0.319 0.076-0.496v-0.001c0-0.331-0.108-0.586-0.325-0.765-0.217-0.191-0.541-0.287-0.975-0.287-0.395 0-0.771 0.108-1.128 0.325-0.357 0.204-0.637 0.51-0.841 0.918l-3.403-1.701c0.484-0.918 1.211-1.663 2.179-2.237s2.173-0.86 3.613-0.86c1.058 0 1.995 0.172 2.81 0.516s1.453 0.828 1.912 1.453c0.459 0.625 0.688 1.364 0.688 2.218-0.001 0.463-0.064 0.91-0.18 1.335l0.008-0.036c-0.102 0.433-0.319 0.892-0.65 1.376-0.331 0.472-0.822 1-1.472 1.587l-3.632 3.307-0.707-1.568h6.939v3.498h-10.725zM26.25 18.592c-0.918 0-1.848-0.102-2.791-0.306s-1.772-0.503-2.485-0.898l1.529-3.326c0.517 0.306 1.114 0.561 1.745 0.734l0.052 0.012c0.637 0.153 1.236 0.229 1.797 0.229 0.51 0 0.924-0.083 1.243-0.249 0.331-0.179 0.497-0.44 0.497-0.784 0-0.293-0.121-0.516-0.363-0.669-0.242-0.166-0.65-0.249-1.223-0.249h-1.778v-2.772l3.46-3.518 0.401 1.51h-6.672v-3.403h9.979v2.772l-3.46 3.518-2.16-1.223h1.185c1.682 0 2.963 0.376 3.843 1.128s1.319 1.721 1.319 2.906c0 0.765-0.217 1.497-0.65 2.198-0.421 0.701-1.083 1.275-1.988 1.721-0.892 0.446-2.052 0.669-3.479 0.669z"></path>
<path fill="#fff" style="fill: var(--color3, #fff)" d="M0.71 30.753v-3.439c0-0.271 0.080-0.49 0.239-0.657s0.388-0.25 0.687-0.25c0.116 0 0.229 0.015 0.337 0.047s0.2 0.079 0.273 0.145l-0.14 0.308c-0.057-0.049-0.125-0.087-0.2-0.11l-0.004-0.001c-0.073-0.026-0.157-0.041-0.244-0.041-0.002 0-0.004 0-0.006 0h0c-0.175 0-0.308 0.049-0.401 0.145s-0.14 0.241-0.14 0.431v0.465l0.012 0.192v2.764h-0.413zM0.163 28.042v-0.343h1.891v0.343h-1.891zM3.805 30.782c-0.295 0-0.56-0.066-0.797-0.198-0.231-0.135-0.418-0.322-0.549-0.546l-0.004-0.007c-0.135-0.237-0.204-0.506-0.204-0.809 0-0.306 0.068-0.576 0.204-0.809 0.134-0.23 0.321-0.415 0.546-0.543l0.007-0.004c0.233-0.132 0.499-0.198 0.797-0.198 0.303 0 0.57 0.066 0.803 0.198 0.237 0.132 0.421 0.314 0.553 0.547 0.136 0.233 0.204 0.502 0.204 0.809 0 0.303-0.068 0.572-0.204 0.809-0.133 0.232-0.32 0.42-0.546 0.549l-0.007 0.004c-0.236 0.132-0.504 0.198-0.803 0.198zM3.805 30.416c0.221 0 0.417-0.049 0.588-0.145 0.171-0.101 0.305-0.241 0.401-0.419 0.101-0.182 0.151-0.392 0.151-0.628 0-0.241-0.050-0.45-0.151-0.628-0.094-0.174-0.231-0.315-0.396-0.41l-0.005-0.003c-0.161-0.095-0.356-0.151-0.563-0.151-0.007 0-0.013 0-0.020 0h0.001c-0.006-0-0.012-0-0.019-0-0.207 0-0.402 0.056-0.568 0.154l0.005-0.003c-0.17 0.097-0.306 0.235-0.407 0.413s-0.151 0.388-0.151 0.628c0 0.237 0.051 0.446 0.151 0.628 0.101 0.179 0.237 0.318 0.407 0.419 0.171 0.097 0.363 0.145 0.576 0.145zM7.454 30.782c-0.295 0-0.561-0.066-0.797-0.198-0.231-0.135-0.418-0.322-0.549-0.546l-0.004-0.007c-0.136-0.237-0.204-0.506-0.204-0.809 0-0.306 0.068-0.576 0.204-0.809 0.134-0.23 0.321-0.415 0.545-0.543l0.007-0.004c0.233-0.132 0.499-0.198 0.797-0.198 0.303 0 0.57 0.066 0.803 0.198 0.237 0.132 0.421 0.314 0.553 0.547 0.135 0.233 0.204 0.502 0.204 0.809 0 0.303-0.068 0.572-0.204 0.809-0.133 0.232-0.32 0.42-0.546 0.549l-0.007 0.004c-0.237 0.132-0.505 0.198-0.803 0.198zM7.454 30.416c0.221 0 0.417-0.049 0.588-0.145 0.17-0.101 0.304-0.241 0.401-0.419 0.101-0.182 0.151-0.392 0.151-0.628 0-0.241-0.051-0.45-0.151-0.628-0.094-0.174-0.23-0.315-0.396-0.41l-0.005-0.003c-0.161-0.095-0.356-0.151-0.563-0.151-0.007 0-0.013 0-0.020 0h0.001c-0.006-0-0.012-0-0.019-0-0.207 0-0.402 0.056-0.568 0.154l0.005-0.003c-0.17 0.097-0.307 0.235-0.407 0.413s-0.151 0.388-0.151 0.628c0 0.237 0.050 0.446 0.151 0.628 0.101 0.179 0.237 0.318 0.407 0.419 0.17 0.097 0.362 0.145 0.576 0.145zM11.072 30.782c-0.291 0-0.553-0.066-0.785-0.198-0.228-0.132-0.411-0.317-0.537-0.54l-0.004-0.007c-0.132-0.237-0.198-0.508-0.198-0.815 0-0.31 0.066-0.582 0.198-0.815s0.312-0.413 0.541-0.541c0.233-0.132 0.495-0.198 0.785-0.198 0.268 0 0.506 0.060 0.716 0.18 0.213 0.121 0.382 0.297 0.506 0.529 0.128 0.229 0.192 0.51 0.192 0.844 0 0.33-0.062 0.611-0.186 0.844s-0.293 0.411-0.506 0.535c-0.209 0.121-0.45 0.18-0.721 0.18zM11.101 30.416c0.217 0 0.411-0.049 0.582-0.145 0.175-0.101 0.31-0.241 0.407-0.419 0.101-0.182 0.151-0.392 0.151-0.628 0-0.241-0.050-0.45-0.151-0.628-0.097-0.179-0.233-0.316-0.407-0.413-0.161-0.095-0.356-0.151-0.563-0.151-0.007 0-0.013 0-0.020 0h0.001c-0.213 0-0.405 0.050-0.576 0.151-0.17 0.097-0.306 0.235-0.407 0.413s-0.151 0.388-0.151 0.628c0 0.237 0.050 0.446 0.151 0.628 0.101 0.179 0.237 0.318 0.407 0.419 0.17 0.097 0.363 0.145 0.576 0.145zM12.253 30.753v-0.919l0.041-0.617-0.058-0.617v-2.164h0.413v4.317h-0.396zM16.288 30.782c-0.287 0-0.508-0.078-0.663-0.233s-0.233-0.374-0.233-0.657v-2.868h0.413v2.845c0 0.179 0.045 0.316 0.134 0.413 0.093 0.097 0.225 0.145 0.396 0.145 0.183 0 0.334-0.052 0.454-0.157l0.145 0.297c-0.082 0.073-0.182 0.129-0.291 0.162l-0.005 0.001c-0.112 0.035-0.229 0.052-0.349 0.052zM14.845 28.042v-0.343h1.891v0.343h-1.891zM17.686 30.753v-3.055h0.396v0.832l-0.041-0.145c0.085-0.233 0.229-0.409 0.431-0.529 0.202-0.124 0.452-0.186 0.751-0.186v0.401h-0.047c-0.014-0.004-0.030-0.006-0.047-0.006h-0c-0.322 0-0.574 0.099-0.756 0.297-0.182 0.194-0.273 0.471-0.273 0.832v1.559h-0.413zM21.283 30.782c-0.26 0-0.487-0.049-0.681-0.145s-0.349-0.247-0.451-0.431l-0.003-0.005c-0.105-0.194-0.157-0.436-0.157-0.727v-1.775h0.413v1.728c0 0.326 0.079 0.572 0.239 0.739 0.163 0.163 0.39 0.244 0.681 0.244 0.213 0 0.398-0.043 0.553-0.128 0.157-0.089 0.281-0.22 0.358-0.379l0.002-0.005c0.085-0.167 0.128-0.367 0.128-0.599v-1.6h0.413v3.055h-0.396v-0.838l0.064 0.151c-0.095 0.223-0.252 0.404-0.449 0.527l-0.005 0.003c-0.202 0.124-0.438 0.186-0.71 0.186zM25.198 30.782c-0.303 0-0.574-0.066-0.815-0.198-0.233-0.134-0.423-0.321-0.555-0.546l-0.004-0.007c-0.135-0.237-0.204-0.506-0.204-0.809 0-0.306 0.068-0.576 0.204-0.809s0.322-0.415 0.559-0.547c0.241-0.132 0.512-0.198 0.815-0.198 0.26 0 0.495 0.050 0.704 0.151s0.374 0.252 0.495 0.454l-0.308 0.209c-0.097-0.147-0.229-0.264-0.384-0.341l-0.006-0.003c-0.145-0.070-0.315-0.111-0.495-0.111-0.004 0-0.008 0-0.011 0h0.001c-0.217 0-0.413 0.050-0.588 0.151-0.175 0.097-0.312 0.235-0.413 0.413s-0.151 0.388-0.151 0.628 0.051 0.45 0.151 0.628c0.101 0.179 0.239 0.318 0.413 0.419 0.175 0.097 0.371 0.145 0.588 0.145 0.182 0 0.351-0.037 0.506-0.111s0.285-0.186 0.39-0.337l0.308 0.209c-0.12 0.198-0.285 0.349-0.495 0.454-0.199 0.096-0.433 0.151-0.68 0.151-0.009 0-0.017-0-0.025-0l0.001 0zM27.489 29.962l0.012-0.529 1.903-1.734h0.506l-1.344 1.286-0.233 0.198-0.844 0.78zM27.163 30.753v-4.317h0.413v4.317h-0.413zM29.531 30.753l-1.274-1.588 0.268-0.32 1.513 1.908h-0.506zM31.386 30.782c-0.252 0-0.49-0.035-0.716-0.105-0.225-0.074-0.401-0.165-0.529-0.273l0.186-0.326c0.124 0.093 0.283 0.175 0.477 0.244 0.194 0.066 0.398 0.099 0.611 0.099 0.291 0 0.5-0.044 0.628-0.134 0.128-0.093 0.192-0.215 0.192-0.367 0-0.112-0.037-0.199-0.111-0.262-0.077-0.069-0.171-0.119-0.275-0.145l-0.004-0.001c-0.106-0.033-0.238-0.063-0.372-0.085l-0.018-0.002c-0.143-0.023-0.287-0.050-0.431-0.081-0.145-0.032-0.274-0.078-0.394-0.138l0.010 0.004c-0.116-0.062-0.212-0.145-0.285-0.25-0.070-0.105-0.105-0.244-0.105-0.419 0-0.167 0.047-0.316 0.14-0.448s0.229-0.235 0.407-0.308c0.182-0.078 0.403-0.116 0.663-0.116 0.198 0 0.396 0.027 0.593 0.081 0.198 0.050 0.361 0.118 0.489 0.204l-0.18 0.332c-0.125-0.087-0.27-0.155-0.427-0.196l-0.009-0.002c-0.139-0.040-0.3-0.064-0.465-0.064h-0c-0.276 0-0.479 0.049-0.611 0.145-0.128 0.093-0.192 0.213-0.192 0.361 0 0.116 0.035 0.208 0.105 0.273 0.074 0.066 0.169 0.118 0.285 0.157 0.121 0.035 0.25 0.064 0.39 0.087 0.143 0.023 0.285 0.052 0.425 0.087 0.143 0.031 0.273 0.076 0.39 0.134 0.121 0.054 0.215 0.134 0.285 0.239 0.074 0.101 0.111 0.235 0.111 0.401 0 0.179-0.050 0.334-0.151 0.465-0.097 0.128-0.241 0.229-0.431 0.303-0.186 0.070-0.413 0.105-0.681 0.105z"></path>
</symbol>
<symbol id="facebook" viewBox="0 0 16 32">
<path  d="M14.143 15.971h-4.033v14.865h-6.112v-14.865h-2.906v-5.222h2.906v-3.382c0-2.417 1.142-6.204 6.167-6.204l4.527 0.019v5.072h-3.284c-0.538 0-1.297 0.272-1.297 1.425v3.073h4.567l-0.534 5.219z"></path>
</symbol>
<symbol id="telegram-i" viewBox="0 0 44 32">
<path d="M17.342 21.048l-0.674 8.86c0.966 0 1.384-0.388 1.886-0.852l4.526-4.040 9.38 6.414c1.72 0.894 2.934 0.422 3.398-1.478l6.158-26.932c0.546-2.374-0.92-3.302-2.594-2.72l-36.196 12.934c-2.47 0.896-2.432 2.18-0.418 2.766l9.252 2.684 21.494-12.552c1.012-0.626 1.932-0.28 1.174 0.346l-17.386 14.57z"></path>
</symbol>
<symbol id="git-hub" viewBox="0 0 32 32">
<path d="M16 0c-8.789 0-16 7.211-16 16 0 7.499 5.262 14.312 12.25 16v-5.293c-0.276 0.070-0.593 0.109-0.919 0.109-0.398 0-0.781-0.059-1.143-0.169l0.028 0.007c-0.946-0.278-1.714-0.909-2.285-1.869-0.363-0.613-1.008-1.28-1.68-1.23l-0.165-1.867c1.454-0.125 2.71 0.886 3.456 2.139 0.333 0.558 0.715 0.885 1.205 1.029 0.472 0.141 0.981 0.074 1.573-0.136 0.149-1.186 0.693-1.629 1.104-2.256-4.168-0.621-5.829-2.832-6.488-4.576-0.874-2.318-0.405-5.213 1.139-7.043 0.030-0.035 0.085-0.128 0.064-0.192-0.709-2.141 0.154-3.91 0.186-4.098 0.818 0.24 0.95-0.243 3.552 1.336l0.448 0.27c0.189 0.112 0.128 0.048 0.317 0.032 1.003-0.282 2.157-0.452 3.349-0.469l0.010-0c1.136 0.014 2.272 0.176 3.403 0.483l0.146 0.016c-0.013-0.003 0.040-0.010 0.128-0.062 3.248-1.968 3.131-1.325 4.003-1.608 0.032 0.189 0.882 1.987 0.182 4.099-0.096 0.291 2.816 2.957 1.202 7.235-0.659 1.744-2.32 3.957-6.486 4.578 0.534 0.816 1.176 1.248 1.173 2.928v6.606c6.986-1.688 12.25-8.501 12.25-16 0-8.789-7.211-16-16-16z"></path>
</symbol>
<symbol id="vector-i" viewBox="0 0 22 32">
<path fill="none" stroke="#fcfcfc" style="stroke: var(--color2, #fcfcfc)" stroke-linejoin="round" stroke-linecap="round" stroke-miterlimit="4" stroke-width="6.4" d="M6.166 3.795l12.832 12.218-12.832 12.221"></path>
</symbol>
</defs>
</svg>
